<svg xmlns="http://www.w3.org/2000/svg" width="54" height="35" viewBox="0 0 54 35">
    <path fill="#FFF" fill-rule="evenodd" d="M26.284 6.409c1.778 0 3.662.505 5.594 2.206.996.905 2.18 2.749 2.458 3.807.783 2.804 1.096 6.543-.325 10.751-.562 1.441-.899 2.32-1.778 3.696a17.541 17.541 0 0 1-11.128 7.76c-1.917.382-3.541.37-3.541.37s-.559.007-1.439-.074c-.641-.04-3.765-.31-6.92-2.026-2.272-1.204-4.074-2.785-5.608-4.768C1.796 25.802.77 22.837.417 21.137-.01 19.073 0 17.955 0 17.245V1.478C0 .714.652 0 1.456 0h2.909c.65 0 1.464.538 1.464 1.443v13.355c0 2.106-.208 5.479 1.796 8.782 1.55 2.556 4.361 4.184 4.757 4.374.826.414 2.76 1.162 5.103 1.162.69-.012 3.116-.138 5.611-1.478 1.878-1.007 3.538-2.798 4.413-4.343 1.518-2.684 1.62-4.892 1.62-6.022 0-1.972-.372-3.568-1.091-4.227a2.662 2.662 0 0 0-1.826-.716c-.683 0-1.906.361-2.443 1.672-.537 1.377-.46 2.846-.46 3.254 0 .215-.075 1.327.279 2.728.32 1.264.794 2.415 1.416 3.425.094.174.203.347.302.496.058.09-2.099 2.512-4.905 3.224-.421-.642-1.388-2.206-1.879-3.735-.28-.875-1.049-3.004-1.049-6.121 0-3.118.668-4.856.881-5.481.115-.338.95-2.209 2.755-3.649 2.05-1.641 4.447-1.734 5.176-1.734zm9.974 22.707c2.376 0 4.34-.748 5.179-1.163.4-.19 3.253-1.817 4.826-4.373 2.034-3.303 1.823-6.676 1.823-8.782V1.443c0-.905.826-1.443 1.486-1.443h2.952c.815 0 1.475.714 1.475 1.478L54 17.245c0 .71.01 1.827-.423 3.892-.357 1.7-1.4 4.665-3.228 6.994-1.556 1.983-3.384 3.564-5.69 4.768-3.202 1.716-6.372 1.987-7.022 2.026-.894.08-1.46.075-1.46.075s-1.648.01-3.594-.371A17.997 17.997 0 0 1 29 33.464c2.334-1.35 4.414-3.893 4.944-4.62 1.094.228 1.947.265 2.314.272z"/>
</svg>
